<svg xmlns="http://www.w3.org/2000/svg" xmlns:xlink="http://www.w3.org/1999/xlink" width="220" zoomAndPan="magnify" viewBox="0 0 165 44.999999" height="60" preserveAspectRatio="xMidYMid meet" version="1.0"><defs><g/><clipPath id="3b249cb4bc"><path d="M 150.75 23.054688 L 153.539062 23.054688 L 153.539062 26.242188 L 150.75 26.242188 Z M 150.75 23.054688 " clip-rule="nonzero"/></clipPath></defs><g fill="#2c1f36" fill-opacity="1"><g transform="translate(0.0745646, 25.903524)"><g><path d="M 7.984375 -14.140625 C 10.285156 -14.140625 12.003906 -13.578125 13.140625 -12.453125 C 14.285156 -11.328125 14.859375 -9.675781 14.859375 -7.5 L 14.859375 0 L 12.53125 0 L 11.046875 -3.578125 C 10.648438 -2.316406 9.941406 -1.335938 8.921875 -0.640625 C 7.898438 0.046875 6.644531 0.390625 5.15625 0.390625 C 3.726562 0.390625 2.628906 0.0507812 1.859375 -0.625 C 1.097656 -1.3125 0.71875 -2.148438 0.71875 -3.140625 C 0.71875 -4.628906 1.3125 -5.78125 2.5 -6.59375 C 3.6875 -7.40625 5.539062 -8 8.0625 -8.375 L 9.90625 -8.65625 C 9.832031 -9.226562 9.640625 -9.640625 9.328125 -9.890625 C 9.023438 -10.140625 8.5625 -10.265625 7.9375 -10.265625 C 7.332031 -10.265625 6.878906 -10.144531 6.578125 -9.90625 C 6.285156 -9.664062 6.097656 -9.347656 6.015625 -8.953125 L 1.03125 -8.953125 C 1.175781 -9.984375 1.503906 -10.890625 2.015625 -11.671875 C 2.523438 -12.453125 3.269531 -13.054688 4.25 -13.484375 C 5.238281 -13.921875 6.484375 -14.140625 7.984375 -14.140625 Z M 6.921875 -3.390625 C 7.523438 -3.390625 8.0625 -3.519531 8.53125 -3.78125 C 9 -4.039062 9.363281 -4.378906 9.625 -4.796875 C 9.894531 -5.210938 10.03125 -5.660156 10.03125 -6.140625 L 9.265625 -6.015625 C 6.960938 -5.640625 5.8125 -5.046875 5.8125 -4.234375 C 5.8125 -4.003906 5.898438 -3.804688 6.078125 -3.640625 C 6.265625 -3.472656 6.546875 -3.390625 6.921875 -3.390625 Z M 6.921875 -3.390625 "/></g></g></g><g fill="#2c1f36" fill-opacity="1"><g transform="translate(16.047274, 25.903524)"><g><path d="M 10.765625 -11.3125 L 10.765625 -18.9375 L 15.75 -18.9375 L 15.75 0 L 13.40625 0 L 11.75 -4.15625 C 11.414062 -2.695312 10.757812 -1.570312 9.78125 -0.78125 C 8.8125 0 7.6875 0.390625 6.40625 0.390625 C 5.382812 0.390625 4.429688 0.109375 3.546875 -0.453125 C 2.671875 -1.015625 1.96875 -1.816406 1.4375 -2.859375 C 0.914062 -3.910156 0.65625 -5.15625 0.65625 -6.59375 L 0.65625 -7.15625 C 0.65625 -8.59375 0.914062 -9.832031 1.4375 -10.875 C 1.96875 -11.925781 2.671875 -12.734375 3.546875 -13.296875 C 4.429688 -13.859375 5.382812 -14.140625 6.40625 -14.140625 C 7.320312 -14.140625 8.160156 -13.894531 8.921875 -13.40625 C 9.679688 -12.925781 10.296875 -12.226562 10.765625 -11.3125 Z M 8.203125 -3.921875 C 8.960938 -3.921875 9.578125 -4.175781 10.046875 -4.6875 C 10.523438 -5.195312 10.765625 -5.925781 10.765625 -6.875 C 10.765625 -7.84375 10.523438 -8.578125 10.046875 -9.078125 C 9.578125 -9.578125 8.960938 -9.828125 8.203125 -9.828125 C 7.421875 -9.828125 6.800781 -9.582031 6.34375 -9.09375 C 5.882812 -8.601562 5.65625 -7.863281 5.65625 -6.875 C 5.65625 -5.882812 5.882812 -5.144531 6.34375 -4.65625 C 6.800781 -4.164062 7.421875 -3.921875 8.203125 -3.921875 Z M 8.203125 -3.921875 "/></g></g></g><g fill="#2c1f36" fill-opacity="1"><g transform="translate(33.29054, 25.903524)"><g><path d="M 7.203125 -6.59375 L 9.75 -13.75 L 14.78125 -13.75 L 9.34375 0 L 5.03125 0 L -0.390625 -13.75 L 4.671875 -13.75 Z M 7.203125 -6.59375 "/></g></g></g><g fill="#2c1f36" fill-opacity="1"><g transform="translate(47.681538, 25.903524)"><g><path d="M 7.984375 -14.140625 C 10.285156 -14.140625 12.003906 -13.578125 13.140625 -12.453125 C 14.285156 -11.328125 14.859375 -9.675781 14.859375 -7.5 L 14.859375 0 L 12.53125 0 L 11.046875 -3.578125 C 10.648438 -2.316406 9.941406 -1.335938 8.921875 -0.640625 C 7.898438 0.046875 6.644531 0.390625 5.15625 0.390625 C 3.726562 0.390625 2.628906 0.0507812 1.859375 -0.625 C 1.097656 -1.3125 0.71875 -2.148438 0.71875 -3.140625 C 0.71875 -4.628906 1.3125 -5.78125 2.5 -6.59375 C 3.6875 -7.40625 5.539062 -8 8.0625 -8.375 L 9.90625 -8.65625 C 9.832031 -9.226562 9.640625 -9.640625 9.328125 -9.890625 C 9.023438 -10.140625 8.5625 -10.265625 7.9375 -10.265625 C 7.332031 -10.265625 6.878906 -10.144531 6.578125 -9.90625 C 6.285156 -9.664062 6.097656 -9.347656 6.015625 -8.953125 L 1.03125 -8.953125 C 1.175781 -9.984375 1.503906 -10.890625 2.015625 -11.671875 C 2.523438 -12.453125 3.269531 -13.054688 4.25 -13.484375 C 5.238281 -13.921875 6.484375 -14.140625 7.984375 -14.140625 Z M 6.921875 -3.390625 C 7.523438 -3.390625 8.0625 -3.519531 8.53125 -3.78125 C 9 -4.039062 9.363281 -4.378906 9.625 -4.796875 C 9.894531 -5.210938 10.03125 -5.660156 10.03125 -6.140625 L 9.265625 -6.015625 C 6.960938 -5.640625 5.8125 -5.046875 5.8125 -4.234375 C 5.8125 -4.003906 5.898438 -3.804688 6.078125 -3.640625 C 6.265625 -3.472656 6.546875 -3.390625 6.921875 -3.390625 Z M 6.921875 -3.390625 "/></g></g></g><g fill="#2c1f36" fill-opacity="1"><g transform="translate(63.654248, 25.903524)"><g><path d="M 10.421875 -14.140625 C 11.910156 -14.140625 13.132812 -13.613281 14.09375 -12.5625 C 15.050781 -11.519531 15.53125 -9.992188 15.53125 -7.984375 L 15.53125 0 L 10.5625 0 L 10.5625 -7.265625 C 10.5625 -8.179688 10.40625 -8.820312 10.09375 -9.1875 C 9.78125 -9.550781 9.320312 -9.734375 8.71875 -9.734375 C 8.070312 -9.734375 7.539062 -9.492188 7.125 -9.015625 C 6.71875 -8.535156 6.515625 -7.8125 6.515625 -6.84375 L 6.515625 0 L 1.5 0 L 1.5 -13.75 L 3.84375 -13.75 L 5.5 -9.671875 C 5.84375 -11.210938 6.453125 -12.34375 7.328125 -13.0625 C 8.210938 -13.78125 9.242188 -14.140625 10.421875 -14.140625 Z M 10.421875 -14.140625 "/></g></g></g><g fill="#2c1f36" fill-opacity="1"><g transform="translate(80.352991, 25.903524)"><g><path d="M 0.65625 -6.59375 L 0.65625 -7.15625 C 0.65625 -8.5625 0.953125 -9.785156 1.546875 -10.828125 C 2.140625 -11.867188 3.003906 -12.679688 4.140625 -13.265625 C 5.273438 -13.847656 6.632812 -14.140625 8.21875 -14.140625 C 10.394531 -14.140625 12.101562 -13.601562 13.34375 -12.53125 C 14.59375 -11.457031 15.316406 -9.992188 15.515625 -8.140625 L 10.40625 -8.140625 C 10.144531 -9.335938 9.390625 -9.9375 8.140625 -9.9375 C 7.398438 -9.9375 6.800781 -9.6875 6.34375 -9.1875 C 5.882812 -8.6875 5.65625 -7.914062 5.65625 -6.875 C 5.65625 -5.832031 5.882812 -5.0625 6.34375 -4.5625 C 6.800781 -4.0625 7.398438 -3.8125 8.140625 -3.8125 C 9.390625 -3.8125 10.148438 -4.410156 10.421875 -5.609375 L 15.53125 -5.609375 C 15.34375 -3.753906 14.625 -2.289062 13.375 -1.21875 C 12.132812 -0.144531 10.414062 0.390625 8.21875 0.390625 C 6.632812 0.390625 5.273438 0.101562 4.140625 -0.46875 C 3.003906 -1.050781 2.140625 -1.867188 1.546875 -2.921875 C 0.953125 -3.984375 0.65625 -5.207031 0.65625 -6.59375 Z M 0.65625 -6.59375 "/></g></g></g><g fill="#2c1f36" fill-opacity="1"><g transform="translate(96.481283, 25.903524)"><g><path d="M 15.53125 -7.75 C 15.53125 -7.039062 15.5 -6.40625 15.4375 -5.84375 L 5.453125 -5.84375 C 5.566406 -4.988281 5.835938 -4.378906 6.265625 -4.015625 C 6.691406 -3.648438 7.222656 -3.46875 7.859375 -3.46875 C 8.535156 -3.46875 9.035156 -3.578125 9.359375 -3.796875 C 9.691406 -4.015625 9.941406 -4.304688 10.109375 -4.671875 L 15.296875 -4.671875 C 15.179688 -3.765625 14.84375 -2.925781 14.28125 -2.15625 C 13.71875 -1.394531 12.929688 -0.78125 11.921875 -0.3125 C 10.910156 0.15625 9.660156 0.390625 8.171875 0.390625 C 6.597656 0.390625 5.25 0.101562 4.125 -0.46875 C 3 -1.050781 2.140625 -1.867188 1.546875 -2.921875 C 0.953125 -3.984375 0.65625 -5.207031 0.65625 -6.59375 L 0.65625 -7.15625 C 0.65625 -8.5625 0.953125 -9.785156 1.546875 -10.828125 C 2.140625 -11.867188 3.003906 -12.679688 4.140625 -13.265625 C 5.273438 -13.847656 6.644531 -14.140625 8.25 -14.140625 C 9.769531 -14.140625 11.070312 -13.859375 12.15625 -13.296875 C 13.25 -12.742188 14.082031 -11.988281 14.65625 -11.03125 C 15.238281 -10.070312 15.53125 -8.976562 15.53125 -7.75 Z M 8.125 -10.421875 C 7.414062 -10.421875 6.835938 -10.265625 6.390625 -9.953125 C 5.953125 -9.648438 5.65625 -9.117188 5.5 -8.359375 L 10.53125 -8.359375 C 10.425781 -9.097656 10.171875 -9.625 9.765625 -9.9375 C 9.359375 -10.257812 8.8125 -10.421875 8.125 -10.421875 Z M 8.125 -10.421875 "/></g></g></g><g fill="#2c1f36" fill-opacity="1"><g transform="translate(98.244012, 39.913504)"><g><path d="M 1.015625 -5.671875 L 1.015625 -6.0625 C 1.015625 -7.269531 1.253906 -8.3125 1.734375 -9.1875 C 2.210938 -10.070312 2.890625 -10.753906 3.765625 -11.234375 C 4.648438 -11.710938 5.691406 -11.953125 6.890625 -11.953125 C 8.566406 -11.953125 9.878906 -11.523438 10.828125 -10.671875 C 11.785156 -9.828125 12.375 -8.679688 12.59375 -7.234375 L 10.65625 -7.234375 C 10.28125 -9.273438 9.023438 -10.296875 6.890625 -10.296875 C 5.628906 -10.296875 4.648438 -9.929688 3.953125 -9.203125 C 3.265625 -8.472656 2.921875 -7.363281 2.921875 -5.875 C 2.921875 -4.375 3.265625 -3.257812 3.953125 -2.53125 C 4.648438 -1.800781 5.628906 -1.4375 6.890625 -1.4375 C 9.015625 -1.4375 10.273438 -2.457031 10.671875 -4.5 L 12.625 -4.5 C 12.394531 -3.050781 11.804688 -1.898438 10.859375 -1.046875 C 9.910156 -0.203125 8.585938 0.21875 6.890625 0.21875 C 5.691406 0.21875 4.648438 -0.0195312 3.765625 -0.5 C 2.890625 -0.976562 2.210938 -1.660156 1.734375 -2.546875 C 1.253906 -3.429688 1.015625 -4.472656 1.015625 -5.671875 Z M 1.015625 -5.671875 "/></g></g></g><g fill="#2c1f36" fill-opacity="1"><g transform="translate(111.84075, 39.913504)"><g><path d="M 7.328125 -11.953125 C 7.671875 -11.953125 7.957031 -11.929688 8.1875 -11.890625 C 8.414062 -11.859375 8.601562 -11.820312 8.75 -11.78125 L 8.75 -9.921875 C 8.519531 -9.953125 8.285156 -9.972656 8.046875 -9.984375 C 7.804688 -9.992188 7.523438 -10 7.203125 -10 C 6.085938 -10 5.222656 -9.597656 4.609375 -8.796875 C 4.003906 -7.992188 3.703125 -6.65625 3.703125 -4.78125 L 3.703125 0 L 1.8125 0 L 1.8125 -11.734375 L 3.03125 -11.734375 L 3.390625 -8.328125 C 3.710938 -9.609375 4.222656 -10.53125 4.921875 -11.09375 C 5.628906 -11.664062 6.429688 -11.953125 7.328125 -11.953125 Z M 7.328125 -11.953125 "/></g></g></g><g fill="#2c1f36" fill-opacity="1"><g transform="translate(121.141447, 39.913504)"><g><path d="M 12.625 -6.46875 C 12.625 -6.039062 12.59375 -5.65625 12.53125 -5.3125 L 2.9375 -5.3125 C 3.039062 -4 3.429688 -3.023438 4.109375 -2.390625 C 4.796875 -1.753906 5.738281 -1.4375 6.9375 -1.4375 C 7.6875 -1.4375 8.289062 -1.539062 8.75 -1.75 C 9.21875 -1.96875 9.582031 -2.253906 9.84375 -2.609375 C 10.113281 -2.960938 10.320312 -3.347656 10.46875 -3.765625 L 12.40625 -3.765625 C 12.269531 -3.066406 11.988281 -2.410156 11.5625 -1.796875 C 11.132812 -1.191406 10.539062 -0.703125 9.78125 -0.328125 C 9.019531 0.0351562 8.054688 0.21875 6.890625 0.21875 C 5.691406 0.21875 4.648438 -0.0195312 3.765625 -0.5 C 2.890625 -0.976562 2.210938 -1.660156 1.734375 -2.546875 C 1.253906 -3.429688 1.015625 -4.472656 1.015625 -5.671875 L 1.015625 -6.0625 C 1.015625 -7.269531 1.253906 -8.3125 1.734375 -9.1875 C 2.210938 -10.070312 2.898438 -10.753906 3.796875 -11.234375 C 4.691406 -11.710938 5.742188 -11.953125 6.953125 -11.953125 C 8.117188 -11.953125 9.117188 -11.722656 9.953125 -11.265625 C 10.796875 -10.804688 11.453125 -10.164062 11.921875 -9.34375 C 12.390625 -8.53125 12.625 -7.570312 12.625 -6.46875 Z M 6.953125 -10.296875 C 5.785156 -10.296875 4.863281 -10.003906 4.1875 -9.421875 C 3.507812 -8.847656 3.101562 -7.976562 2.96875 -6.8125 L 10.71875 -6.8125 C 10.625 -7.96875 10.253906 -8.835938 9.609375 -9.421875 C 8.972656 -10.003906 8.085938 -10.296875 6.953125 -10.296875 Z M 6.953125 -10.296875 "/></g></g></g><g fill="#2c1f36" fill-opacity="1"><g transform="translate(134.782472, 39.913504)"><g><path d="M 10.921875 -9.125 L 10.921875 -16.15625 L 12.796875 -16.15625 L 12.796875 0 L 11.578125 0 L 11.21875 -3.25 C 10.863281 -2.15625 10.253906 -1.300781 9.390625 -0.6875 C 8.535156 -0.0820312 7.507812 0.21875 6.3125 0.21875 C 5.300781 0.21875 4.394531 -0.0195312 3.59375 -0.5 C 2.800781 -0.976562 2.171875 -1.660156 1.703125 -2.546875 C 1.242188 -3.429688 1.015625 -4.472656 1.015625 -5.671875 L 1.015625 -6.0625 C 1.015625 -7.269531 1.242188 -8.3125 1.703125 -9.1875 C 2.171875 -10.070312 2.800781 -10.753906 3.59375 -11.234375 C 4.394531 -11.710938 5.300781 -11.953125 6.3125 -11.953125 C 7.375 -11.953125 8.304688 -11.703125 9.109375 -11.203125 C 9.910156 -10.710938 10.515625 -10.019531 10.921875 -9.125 Z M 6.90625 -1.4375 C 8.175781 -1.4375 9.160156 -1.804688 9.859375 -2.546875 C 10.566406 -3.285156 10.921875 -4.378906 10.921875 -5.828125 C 10.921875 -7.316406 10.566406 -8.429688 9.859375 -9.171875 C 9.160156 -9.921875 8.175781 -10.296875 6.90625 -10.296875 C 5.632812 -10.296875 4.648438 -9.929688 3.953125 -9.203125 C 3.265625 -8.472656 2.921875 -7.347656 2.921875 -5.828125 C 2.921875 -4.347656 3.265625 -3.242188 3.953125 -2.515625 C 4.648438 -1.796875 5.632812 -1.4375 6.90625 -1.4375 Z M 6.90625 -1.4375 "/></g></g></g><g fill="#2c1f36" fill-opacity="1"><g transform="translate(149.397856, 39.913504)"><g><path d="M 4.09375 -15.078125 C 4.09375 -15.460938 3.96875 -15.773438 3.71875 -16.015625 C 3.476562 -16.265625 3.15625 -16.390625 2.75 -16.390625 C 2.332031 -16.390625 2 -16.265625 1.75 -16.015625 C 1.507812 -15.773438 1.390625 -15.460938 1.390625 -15.078125 C 1.390625 -14.679688 1.507812 -14.359375 1.75 -14.109375 C 2 -13.867188 2.332031 -13.75 2.75 -13.75 C 3.15625 -13.75 3.476562 -13.867188 3.71875 -14.109375 C 3.96875 -14.359375 4.09375 -14.679688 4.09375 -15.078125 Z M 3.703125 0 L 1.8125 0 L 1.8125 -11.734375 L 3.703125 -11.734375 Z M 3.703125 0 "/></g></g></g><g fill="#2c1f36" fill-opacity="1"><g transform="translate(154.911844, 39.913504)"><g><path d="M 9.140625 -11.734375 L 9.140625 -10.078125 L 4.953125 -10.078125 L 4.953125 -3.828125 C 4.953125 -2.984375 5.128906 -2.375 5.484375 -2 C 5.835938 -1.625 6.378906 -1.4375 7.109375 -1.4375 C 7.523438 -1.4375 7.894531 -1.453125 8.21875 -1.484375 C 8.539062 -1.523438 8.859375 -1.578125 9.171875 -1.640625 L 9.171875 0 C 8.921875 0.0625 8.632812 0.113281 8.3125 0.15625 C 8 0.195312 7.597656 0.21875 7.109375 0.21875 C 4.421875 0.21875 3.078125 -1.078125 3.078125 -3.671875 L 3.078125 -10.078125 L 0.671875 -10.078125 L 0.671875 -11.734375 L 3.125 -11.734375 L 3.734375 -15.203125 L 4.953125 -15.203125 L 4.953125 -11.734375 Z M 9.140625 -11.734375 "/></g></g></g><g fill="#2c1f36" fill-opacity="1"><g transform="translate(113.465613, 19.805209)"><g><path d="M 3.453125 -4.25 L 3.453125 -3.796875 L 1.015625 -3.796875 L 1.015625 -2.359375 L 3.25 -2.359375 L 3.25 -1.90625 L 1.015625 -1.90625 L 1.015625 0 L 0.484375 0 L 0.484375 -4.25 Z M 3.453125 -4.25 "/></g></g></g><g fill="#2c1f36" fill-opacity="1"><g transform="translate(117.121642, 19.805209)"><g><path d="M 1.078125 -3.96875 C 1.078125 -4.070312 1.046875 -4.15625 0.984375 -4.21875 C 0.921875 -4.28125 0.832031 -4.3125 0.71875 -4.3125 C 0.613281 -4.3125 0.523438 -4.28125 0.453125 -4.21875 C 0.390625 -4.15625 0.359375 -4.070312 0.359375 -3.96875 C 0.359375 -3.863281 0.390625 -3.78125 0.453125 -3.71875 C 0.523438 -3.65625 0.613281 -3.625 0.71875 -3.625 C 0.832031 -3.625 0.921875 -3.65625 0.984375 -3.71875 C 1.046875 -3.78125 1.078125 -3.863281 1.078125 -3.96875 Z M 0.96875 0 L 0.484375 0 L 0.484375 -3.09375 L 0.96875 -3.09375 Z M 0.96875 0 "/></g></g></g><g fill="#2c1f36" fill-opacity="1"><g transform="translate(118.571246, 19.805209)"><g><path d="M 2.09375 -3.140625 C 2.46875 -3.140625 2.757812 -3.023438 2.96875 -2.796875 C 3.1875 -2.566406 3.296875 -2.210938 3.296875 -1.734375 L 3.296875 0 L 2.8125 0 L 2.8125 -1.65625 C 2.8125 -2.050781 2.742188 -2.320312 2.609375 -2.46875 C 2.472656 -2.625 2.257812 -2.703125 1.96875 -2.703125 C 1.664062 -2.703125 1.421875 -2.597656 1.234375 -2.390625 C 1.054688 -2.191406 0.96875 -1.863281 0.96875 -1.40625 L 0.96875 0 L 0.484375 0 L 0.484375 -3.09375 L 0.796875 -3.09375 L 0.890625 -2.21875 C 0.984375 -2.539062 1.132812 -2.773438 1.34375 -2.921875 C 1.550781 -3.066406 1.800781 -3.140625 2.09375 -3.140625 Z M 2.09375 -3.140625 "/></g></g></g><g fill="#2c1f36" fill-opacity="1"><g transform="translate(122.279671, 19.805209)"><g><path d="M 1.8125 -3.140625 C 2.28125 -3.140625 2.628906 -3.019531 2.859375 -2.78125 C 3.085938 -2.550781 3.203125 -2.1875 3.203125 -1.6875 L 3.203125 0 L 2.890625 0 L 2.78125 -0.96875 C 2.675781 -0.644531 2.492188 -0.390625 2.234375 -0.203125 C 1.972656 -0.0234375 1.664062 0.0625 1.3125 0.0625 C 1.113281 0.0625 0.9375 0.0234375 0.78125 -0.046875 C 0.632812 -0.128906 0.519531 -0.234375 0.4375 -0.359375 C 0.363281 -0.484375 0.328125 -0.617188 0.328125 -0.765625 C 0.328125 -0.941406 0.378906 -1.109375 0.484375 -1.265625 C 0.585938 -1.421875 0.753906 -1.554688 0.984375 -1.671875 C 1.210938 -1.785156 1.507812 -1.863281 1.875 -1.90625 L 2.6875 -2 C 2.65625 -2.257812 2.566406 -2.441406 2.421875 -2.546875 C 2.285156 -2.648438 2.082031 -2.703125 1.8125 -2.703125 C 1.519531 -2.703125 1.304688 -2.644531 1.171875 -2.53125 C 1.035156 -2.414062 0.945312 -2.257812 0.90625 -2.0625 L 0.390625 -2.0625 C 0.429688 -2.375 0.566406 -2.628906 0.796875 -2.828125 C 1.035156 -3.035156 1.375 -3.140625 1.8125 -3.140625 Z M 1.453125 -0.375 C 1.679688 -0.375 1.890625 -0.429688 2.078125 -0.546875 C 2.273438 -0.660156 2.425781 -0.8125 2.53125 -1 C 2.644531 -1.1875 2.703125 -1.398438 2.703125 -1.640625 L 2.09375 -1.5625 C 1.769531 -1.519531 1.515625 -1.460938 1.328125 -1.390625 C 1.148438 -1.316406 1.019531 -1.234375 0.9375 -1.140625 C 0.863281 -1.046875 0.828125 -0.945312 0.828125 -0.84375 C 0.828125 -0.707031 0.875 -0.59375 0.96875 -0.5 C 1.070312 -0.414062 1.234375 -0.375 1.453125 -0.375 Z M 1.453125 -0.375 "/></g></g></g><g fill="#2c1f36" fill-opacity="1"><g transform="translate(125.889123, 19.805209)"><g><path d="M 2.09375 -3.140625 C 2.46875 -3.140625 2.757812 -3.023438 2.96875 -2.796875 C 3.1875 -2.566406 3.296875 -2.210938 3.296875 -1.734375 L 3.296875 0 L 2.8125 0 L 2.8125 -1.65625 C 2.8125 -2.050781 2.742188 -2.320312 2.609375 -2.46875 C 2.472656 -2.625 2.257812 -2.703125 1.96875 -2.703125 C 1.664062 -2.703125 1.421875 -2.597656 1.234375 -2.390625 C 1.054688 -2.191406 0.96875 -1.863281 0.96875 -1.40625 L 0.96875 0 L 0.484375 0 L 0.484375 -3.09375 L 0.796875 -3.09375 L 0.890625 -2.21875 C 0.984375 -2.539062 1.132812 -2.773438 1.34375 -2.921875 C 1.550781 -3.066406 1.800781 -3.140625 2.09375 -3.140625 Z M 2.09375 -3.140625 "/></g></g></g><g fill="#2c1f36" fill-opacity="1"><g transform="translate(129.597548, 19.805209)"><g><path d="M 1.078125 -3.96875 C 1.078125 -4.070312 1.046875 -4.15625 0.984375 -4.21875 C 0.921875 -4.28125 0.832031 -4.3125 0.71875 -4.3125 C 0.613281 -4.3125 0.523438 -4.28125 0.453125 -4.21875 C 0.390625 -4.15625 0.359375 -4.070312 0.359375 -3.96875 C 0.359375 -3.863281 0.390625 -3.78125 0.453125 -3.71875 C 0.523438 -3.65625 0.613281 -3.625 0.71875 -3.625 C 0.832031 -3.625 0.921875 -3.65625 0.984375 -3.71875 C 1.046875 -3.78125 1.078125 -3.863281 1.078125 -3.96875 Z M 0.96875 0 L 0.484375 0 L 0.484375 -3.09375 L 0.96875 -3.09375 Z M 0.96875 0 "/></g></g></g><g fill="#2c1f36" fill-opacity="1"><g transform="translate(131.047152, 19.805209)"><g><path d="M 0.265625 -1.484375 L 0.265625 -1.59375 C 0.265625 -1.914062 0.328125 -2.191406 0.453125 -2.421875 C 0.578125 -2.648438 0.753906 -2.828125 0.984375 -2.953125 C 1.222656 -3.078125 1.5 -3.140625 1.8125 -3.140625 C 2.257812 -3.140625 2.609375 -3.03125 2.859375 -2.8125 C 3.109375 -2.59375 3.257812 -2.289062 3.3125 -1.90625 L 2.796875 -1.90625 C 2.703125 -2.4375 2.375 -2.703125 1.8125 -2.703125 C 1.476562 -2.703125 1.21875 -2.609375 1.03125 -2.421875 C 0.851562 -2.234375 0.765625 -1.941406 0.765625 -1.546875 C 0.765625 -1.148438 0.851562 -0.851562 1.03125 -0.65625 C 1.21875 -0.46875 1.476562 -0.375 1.8125 -0.375 C 2.375 -0.375 2.707031 -0.644531 2.8125 -1.1875 L 3.328125 -1.1875 C 3.265625 -0.800781 3.109375 -0.492188 2.859375 -0.265625 C 2.609375 -0.046875 2.257812 0.0625 1.8125 0.0625 C 1.5 0.0625 1.222656 0 0.984375 -0.125 C 0.753906 -0.257812 0.578125 -0.441406 0.453125 -0.671875 C 0.328125 -0.898438 0.265625 -1.171875 0.265625 -1.484375 Z M 0.265625 -1.484375 "/></g></g></g><g fill="#2c1f36" fill-opacity="1"><g transform="translate(134.621678, 19.805209)"><g><path d="M 1.8125 -3.140625 C 2.28125 -3.140625 2.628906 -3.019531 2.859375 -2.78125 C 3.085938 -2.550781 3.203125 -2.1875 3.203125 -1.6875 L 3.203125 0 L 2.890625 0 L 2.78125 -0.96875 C 2.675781 -0.644531 2.492188 -0.390625 2.234375 -0.203125 C 1.972656 -0.0234375 1.664062 0.0625 1.3125 0.0625 C 1.113281 0.0625 0.9375 0.0234375 0.78125 -0.046875 C 0.632812 -0.128906 0.519531 -0.234375 0.4375 -0.359375 C 0.363281 -0.484375 0.328125 -0.617188 0.328125 -0.765625 C 0.328125 -0.941406 0.378906 -1.109375 0.484375 -1.265625 C 0.585938 -1.421875 0.753906 -1.554688 0.984375 -1.671875 C 1.210938 -1.785156 1.507812 -1.863281 1.875 -1.90625 L 2.6875 -2 C 2.65625 -2.257812 2.566406 -2.441406 2.421875 -2.546875 C 2.285156 -2.648438 2.082031 -2.703125 1.8125 -2.703125 C 1.519531 -2.703125 1.304688 -2.644531 1.171875 -2.53125 C 1.035156 -2.414062 0.945312 -2.257812 0.90625 -2.0625 L 0.390625 -2.0625 C 0.429688 -2.375 0.566406 -2.628906 0.796875 -2.828125 C 1.035156 -3.035156 1.375 -3.140625 1.8125 -3.140625 Z M 1.453125 -0.375 C 1.679688 -0.375 1.890625 -0.429688 2.078125 -0.546875 C 2.273438 -0.660156 2.425781 -0.8125 2.53125 -1 C 2.644531 -1.1875 2.703125 -1.398438 2.703125 -1.640625 L 2.09375 -1.5625 C 1.769531 -1.519531 1.515625 -1.460938 1.328125 -1.390625 C 1.148438 -1.316406 1.019531 -1.234375 0.9375 -1.140625 C 0.863281 -1.046875 0.828125 -0.945312 0.828125 -0.84375 C 0.828125 -0.707031 0.875 -0.59375 0.96875 -0.5 C 1.070312 -0.414062 1.234375 -0.375 1.453125 -0.375 Z M 1.453125 -0.375 "/></g></g></g><g fill="#2c1f36" fill-opacity="1"><g transform="translate(138.23113, 19.805209)"><g><path d="M 0.984375 -4.25 L 0.984375 0 L 0.484375 0 L 0.484375 -4.25 Z M 0.984375 -4.25 "/></g></g></g><g fill="#2c1f36" fill-opacity="1"><g transform="translate(139.704022, 19.805209)"><g/></g></g><g fill="#2c1f36" fill-opacity="1"><g transform="translate(141.62518, 19.805209)"><g><path d="M 2.265625 -4.25 L 3.984375 0 L 3.421875 0 L 2.953125 -1.171875 L 1.09375 -1.171875 L 0.625 0 L 0.078125 0 L 1.765625 -4.25 Z M 2.78125 -1.625 L 2.015625 -3.53125 L 1.265625 -1.625 Z M 2.78125 -1.625 "/></g></g></g><g fill="#2c1f36" fill-opacity="1"><g transform="translate(145.677087, 19.805209)"><g><path d="M 2.875 -2.40625 L 2.875 -4.25 L 3.375 -4.25 L 3.375 0 L 3.046875 0 L 2.953125 -0.859375 C 2.859375 -0.566406 2.695312 -0.335938 2.46875 -0.171875 C 2.25 -0.015625 1.976562 0.0625 1.65625 0.0625 C 1.394531 0.0625 1.160156 0 0.953125 -0.125 C 0.742188 -0.257812 0.578125 -0.441406 0.453125 -0.671875 C 0.328125 -0.898438 0.265625 -1.171875 0.265625 -1.484375 L 0.265625 -1.59375 C 0.265625 -1.914062 0.328125 -2.191406 0.453125 -2.421875 C 0.578125 -2.648438 0.742188 -2.828125 0.953125 -2.953125 C 1.160156 -3.078125 1.394531 -3.140625 1.65625 -3.140625 C 1.9375 -3.140625 2.179688 -3.070312 2.390625 -2.9375 C 2.609375 -2.8125 2.769531 -2.632812 2.875 -2.40625 Z M 1.8125 -0.375 C 2.144531 -0.375 2.40625 -0.472656 2.59375 -0.671875 C 2.78125 -0.867188 2.875 -1.15625 2.875 -1.53125 C 2.875 -1.925781 2.78125 -2.21875 2.59375 -2.40625 C 2.40625 -2.601562 2.144531 -2.703125 1.8125 -2.703125 C 1.476562 -2.703125 1.21875 -2.609375 1.03125 -2.421875 C 0.851562 -2.234375 0.765625 -1.9375 0.765625 -1.53125 C 0.765625 -1.144531 0.851562 -0.851562 1.03125 -0.65625 C 1.21875 -0.46875 1.476562 -0.375 1.8125 -0.375 Z M 1.8125 -0.375 "/></g></g></g><g fill="#2c1f36" fill-opacity="1"><g transform="translate(149.519411, 19.805209)"><g><path d="M 1.625 -0.71875 L 2.640625 -3.09375 L 3.171875 -3.09375 L 1.8125 0 L 1.421875 0 L 0.0625 -3.09375 L 0.609375 -3.09375 Z M 1.625 -0.71875 "/></g></g></g><g fill="#2c1f36" fill-opacity="1"><g transform="translate(152.750456, 19.805209)"><g><path d="M 1.078125 -3.96875 C 1.078125 -4.070312 1.046875 -4.15625 0.984375 -4.21875 C 0.921875 -4.28125 0.832031 -4.3125 0.71875 -4.3125 C 0.613281 -4.3125 0.523438 -4.28125 0.453125 -4.21875 C 0.390625 -4.15625 0.359375 -4.070312 0.359375 -3.96875 C 0.359375 -3.863281 0.390625 -3.78125 0.453125 -3.71875 C 0.523438 -3.65625 0.613281 -3.625 0.71875 -3.625 C 0.832031 -3.625 0.921875 -3.65625 0.984375 -3.71875 C 1.046875 -3.78125 1.078125 -3.863281 1.078125 -3.96875 Z M 0.96875 0 L 0.484375 0 L 0.484375 -3.09375 L 0.96875 -3.09375 Z M 0.96875 0 "/></g></g></g><g fill="#2c1f36" fill-opacity="1"><g transform="translate(154.200059, 19.805209)"><g><path d="M 0.234375 -1.03125 L 0.734375 -1.03125 C 0.773438 -0.832031 0.867188 -0.671875 1.015625 -0.546875 C 1.171875 -0.429688 1.421875 -0.375 1.765625 -0.375 C 1.992188 -0.375 2.175781 -0.394531 2.3125 -0.4375 C 2.445312 -0.488281 2.539062 -0.546875 2.59375 -0.609375 C 2.65625 -0.679688 2.6875 -0.753906 2.6875 -0.828125 C 2.6875 -0.921875 2.660156 -1 2.609375 -1.0625 C 2.566406 -1.132812 2.472656 -1.191406 2.328125 -1.234375 C 2.191406 -1.273438 1.976562 -1.3125 1.6875 -1.34375 C 1.320312 -1.382812 1.039062 -1.441406 0.84375 -1.515625 C 0.644531 -1.597656 0.507812 -1.695312 0.4375 -1.8125 C 0.363281 -1.9375 0.328125 -2.070312 0.328125 -2.21875 C 0.328125 -2.382812 0.375 -2.535156 0.46875 -2.671875 C 0.570312 -2.816406 0.722656 -2.929688 0.921875 -3.015625 C 1.117188 -3.097656 1.367188 -3.140625 1.671875 -3.140625 C 1.992188 -3.140625 2.253906 -3.09375 2.453125 -3 C 2.660156 -2.90625 2.816406 -2.773438 2.921875 -2.609375 C 3.035156 -2.453125 3.101562 -2.269531 3.125 -2.0625 L 2.609375 -2.0625 C 2.578125 -2.257812 2.492188 -2.414062 2.359375 -2.53125 C 2.222656 -2.65625 1.992188 -2.71875 1.671875 -2.71875 C 1.359375 -2.71875 1.132812 -2.671875 1 -2.578125 C 0.875 -2.484375 0.8125 -2.375 0.8125 -2.25 C 0.8125 -2.164062 0.835938 -2.09375 0.890625 -2.03125 C 0.941406 -1.96875 1.039062 -1.910156 1.1875 -1.859375 C 1.332031 -1.816406 1.554688 -1.78125 1.859375 -1.75 C 2.210938 -1.707031 2.484375 -1.644531 2.671875 -1.5625 C 2.867188 -1.488281 3.003906 -1.390625 3.078125 -1.265625 C 3.148438 -1.148438 3.1875 -1.019531 3.1875 -0.875 C 3.1875 -0.71875 3.132812 -0.566406 3.03125 -0.421875 C 2.9375 -0.273438 2.785156 -0.15625 2.578125 -0.0625 C 2.367188 0.0195312 2.097656 0.0625 1.765625 0.0625 C 1.421875 0.0625 1.140625 0.015625 0.921875 -0.078125 C 0.703125 -0.171875 0.535156 -0.300781 0.421875 -0.46875 C 0.316406 -0.632812 0.253906 -0.820312 0.234375 -1.03125 Z M 0.234375 -1.03125 "/></g></g></g><g fill="#2c1f36" fill-opacity="1"><g transform="translate(157.640687, 19.805209)"><g><path d="M 1.828125 0.0625 C 1.503906 0.0625 1.222656 0 0.984375 -0.125 C 0.753906 -0.257812 0.578125 -0.441406 0.453125 -0.671875 C 0.328125 -0.898438 0.265625 -1.171875 0.265625 -1.484375 L 0.265625 -1.59375 C 0.265625 -1.914062 0.328125 -2.191406 0.453125 -2.421875 C 0.578125 -2.648438 0.753906 -2.828125 0.984375 -2.953125 C 1.222656 -3.078125 1.503906 -3.140625 1.828125 -3.140625 C 2.140625 -3.140625 2.410156 -3.078125 2.640625 -2.953125 C 2.878906 -2.828125 3.0625 -2.648438 3.1875 -2.421875 C 3.3125 -2.191406 3.375 -1.914062 3.375 -1.59375 L 3.375 -1.484375 C 3.375 -1.171875 3.3125 -0.898438 3.1875 -0.671875 C 3.0625 -0.441406 2.878906 -0.257812 2.640625 -0.125 C 2.410156 0 2.140625 0.0625 1.828125 0.0625 Z M 1.828125 -0.375 C 2.160156 -0.375 2.414062 -0.46875 2.59375 -0.65625 C 2.78125 -0.851562 2.875 -1.148438 2.875 -1.546875 C 2.875 -1.941406 2.78125 -2.234375 2.59375 -2.421875 C 2.414062 -2.609375 2.160156 -2.703125 1.828125 -2.703125 C 1.484375 -2.703125 1.21875 -2.609375 1.03125 -2.421875 C 0.851562 -2.234375 0.765625 -1.941406 0.765625 -1.546875 C 0.765625 -1.148438 0.851562 -0.851562 1.03125 -0.65625 C 1.21875 -0.46875 1.484375 -0.375 1.828125 -0.375 Z M 1.828125 -0.375 "/></g></g></g><g fill="#2c1f36" fill-opacity="1"><g transform="translate(161.285072, 19.805209)"><g><path d="M 1.921875 -3.140625 C 2.015625 -3.140625 2.09375 -3.132812 2.15625 -3.125 C 2.21875 -3.125 2.265625 -3.113281 2.296875 -3.09375 L 2.296875 -2.609375 C 2.242188 -2.617188 2.179688 -2.625 2.109375 -2.625 C 2.046875 -2.632812 1.972656 -2.640625 1.890625 -2.640625 C 1.597656 -2.640625 1.367188 -2.53125 1.203125 -2.3125 C 1.046875 -2.101562 0.96875 -1.753906 0.96875 -1.265625 L 0.96875 0 L 0.484375 0 L 0.484375 -3.09375 L 0.796875 -3.09375 L 0.890625 -2.1875 C 0.972656 -2.53125 1.109375 -2.773438 1.296875 -2.921875 C 1.484375 -3.066406 1.691406 -3.140625 1.921875 -3.140625 Z M 1.921875 -3.140625 "/></g></g></g><g clip-path="url(#3b249cb4bc)"><path fill="#00bf63" d="M 150.75 23.054688 L 153.539062 23.054688 L 153.539062 26.246094 L 150.75 26.246094 Z M 150.75 23.054688 " fill-opacity="1" fill-rule="nonzero"/></g></svg>